<svg height="33.657" preserveAspectRatio="xMidYMid" viewBox="0 0 33.625 33.657" width="33.625" xmlns="http://www.w3.org/2000/svg"><g fill-rule="evenodd"><path d="m16.812-.003c9.292 0 16.825 7.532 16.825 16.824s-7.533 16.825-16.825 16.825-16.824-7.533-16.824-16.825 7.532-16.824 16.824-16.824z" fill="#fd60e5"/><path d="m25.691 14.816s-.059-2.743-.107-4.024c0 0 .277-2.873-1.861-1.735 0 0-3.588.85-6.236 6.656-.036-.107-.186-.202-.376-.249.186-.965.822-3.854 1.862-4.49.059.063.134.103.217.103.154 0 .281-.119.281-.269 0-.154-.127-.277-.281-.277-.146 0-.281.123-.281.277 0 .012.012.02.012.04-1.126.668-1.758 3.604-1.948 4.592-.036-.004-.071-.008-.115-.008-.027 0-.063.008-.087.008-.19-.988-.826-3.924-1.952-4.592.004-.02.012-.028.012-.04 0-.154-.135-.277-.277-.277-.158 0-.284.123-.284.277 0 .15.126.269.284.269.079 0 .158-.04.21-.103 1.055.633 1.671 3.51 1.869 4.49-.182.039-.32.11-.383.201-2.644-5.714-6.185-6.556-6.185-6.556-2.131-1.139-1.866 1.739-1.866 1.739-.047 1.292-.102 4.023-.102 4.023-.285 2.391 2.837 2.751 2.837 2.751-4.122.482-1.731 4.284-1.731 4.284 1.541 1.253 1.731 2.917 1.731 2.917.474-.348 1.194.545 1.194.545.589-.893 1.082-.66 1.082-.66 1.281-.897 2.403-2.482 3-3.431v.242c0 .122.127.237.308.3v.142c0 .194.15.344.34.344.186 0 .34-.15.34-.344v-.142c.19-.063.309-.178.309-.3v-.408c.58.933 1.731 2.609 3.066 3.546 0 0 .498-.238 1.087.644 0 0 .704-.882 1.193-.542 0 0 .186-1.656 1.736-2.913 0 0 2.383-3.794-1.736-4.28 0 0 3.123-.356 2.838-2.75z" fill="#fff"/></g></svg>